<?xml version="1.0"?>
<svg xmlns="http://www.w3.org/2000/svg" id="Capa_1" enable-background="new 0 0 373.631 373.631" height="512px" viewBox="0 0 373.631 373.631" width="512px"><path d="m146.785 126.767h13.344v40.032h-13.344z" fill="#FFFFFF"/><path d="m260.207 160.126v-6.672h-20.016v20.016c0 3.69-2.989 6.672-6.672 6.672h-26.688c-3.683 0-6.672-2.982-6.672-6.672v-20.016h-26.688v20.016c0 3.69-2.989 6.672-6.672 6.672h-26.688c-3.683 0-6.672-2.982-6.672-6.672v-20.016h-20.016v6.672 33.36h146.782v-33.36z" fill="#FFFFFF"/><path d="m100.081 153.454v-13.344h-54.823-45.256v13.344h58.807z" fill="#FFFFFF"/><path d="m100.081 93.407c0-3.69 2.989-6.672 6.672-6.672h160.126c3.683 0 6.672 2.982 6.672 6.672v33.36h50.22c6.525-17.921 9.828-36.882 9.828-56.438v-16.954c0-52.628-70.402-53.369-73.398-53.375-41.753 0-66.713 22.878-68.507 24.579-4.43 5.271-36.395 42.14-64.925 42.14-3.683 0-6.672-2.982-6.672-6.672s2.989-6.672 6.672-6.672c16.72 0 39.138-20.396 50.506-32.652-9.267-6.999-31.551-20.723-63.85-20.723-2.989.007-73.391.747-73.391 53.375v16.953c0 19.555 3.309 38.517 9.828 56.438h50.22c-.001.001-.001-33.359-.001-33.359z" fill="#FFFFFF"/><path d="m113.425 133.439v6.672h20.016v-20.016c0-3.69 2.989-6.672 6.672-6.672h26.688c3.683 0 6.672 2.982 6.672 6.672v20.016h26.688v-20.016c0-3.69 2.989-6.672 6.672-6.672h26.688c3.683 0 6.672 2.982 6.672 6.672v20.016h20.016v-6.672-33.36h-146.784z" fill="#FFFFFF"/><path d="m213.504 126.767h13.344v40.032h-13.344z" fill="#FFFFFF"/><path d="m306.918 280.514c-.007-21.544-5.985-47.03-11.009-64.658-4.717-16.56-2.315-34.174 6.538-49.052h-28.896v33.36c0 3.69-2.989 6.672-6.672 6.672h-160.126c-3.683 0-6.672-2.982-6.672-6.672v-33.36h-28.896c8.854 14.878 11.256 32.492 6.538 49.052-5.017 17.634-11.002 43.114-11.002 64.364-.033.927-2.415 64.217 24.86 92.993.354.374.801.494 1.328.367.327-.087.901-.327 1.101-1.048 9.154-32.612 42.894-139.016 92.806-139.016s83.659 106.404 92.806 139.016c.2.721.781.967 1.108 1.048.527.133.974.007 1.321-.367 27.329-28.835 24.893-92.065 24.867-92.699z" fill="#FFFFFF"/><path d="m273.551 140.11v13.344h41.273 58.806v-13.344h-45.255z" fill="#FFFFFF"/></svg>
