<?xml version="1.0" encoding="iso-8859-1"?>
<!-- Generator: Adobe Illustrator 18.0.0, SVG Export Plug-In . SVG Version: 6.00 Build 0)  -->
<!DOCTYPE svg PUBLIC "-//W3C//DTD SVG 1.1//EN" "http://www.w3.org/Graphics/SVG/1.1/DTD/svg11.dtd">
<svg xmlns="http://www.w3.org/2000/svg" xmlns:xlink="http://www.w3.org/1999/xlink" version="1.1" id="Capa_1" x="0px" y="0px" viewBox="0 0 60 60" style="enable-background:new 0 0 60 60;" xml:space="preserve" width="512px" height="512px">
<path d="M55.314,19h-4.751v-1h2v-2h-2v-1h5.168l-0.106-1.097c-0.099-1.021-0.254-1.482-0.435-2.019  c-0.087-0.26-0.188-0.559-0.304-0.995c-0.818-3.095-3.213-6.049-6.743-8.318C45.527,0.89,42.369,0,39.01,0  c-2.379,0-4.769,0.469-6.912,1.355l-0.192,0.081c-0.095,0.042-0.188,0.083-0.282,0.115c-0.465,0.162-0.822,0.3-1.113,0.413  c-0.521,0.202-0.712,0.272-0.904,0.272c-0.263,0-0.706-0.117-1.538-0.362c-2.213-0.652-5.563-1.43-8.951-1.43  c-1.946,0-3.674,0.263-5.135,0.78C8.239,3.261,5.071,7.532,4.566,13.921L4.481,15h5.082v1h-2v2h2v1H4.415l-0.073,0.921  c-0.126,1.599-0.091,1.902,0.115,3.25l0.063,0.414c0.186,1.236,0.367,2.481,0.549,3.733c1.312,9.016,2.668,18.339,6.155,26.756  l0.119,0.289C12.209,56.472,13.659,60,16.181,60h0.203l0.187-0.079c2.314-0.98,3.18-3.201,3.812-4.823  c0.427-1.095,0.807-2.211,1.174-3.29c0.483-1.418,0.955-2.794,1.517-4.115c1.256,2.549,3.866,6.796,7.312,6.796  c0.409,0,0.819-0.061,1.219-0.179c2.252-0.668,3.382-2.993,4.208-4.691l0.068-0.141c0.174-0.357,0.395-0.771,0.633-1.22  c0.238-0.447,0.498-0.945,0.754-1.455c0.25,0.806,0.468,1.634,0.682,2.456c0.239,0.914,0.485,1.859,0.772,2.741  c1.259,3.878,2.899,7.842,5.519,7.842c1.231,0,2.322-0.864,3.337-2.644c1.958-3.431,2.797-7.253,3.609-10.949l0.289-1.304  c0.405-1.808,0.875-3.647,1.331-5.428c1.603-6.271,3.26-12.756,2.594-19.614L55.314,19z M11.563,15h37v1h-37V15z M11.563,18h37v1  h-37V18z" fill="#FFFFFF"/>
<g>
</g>
<g>
</g>
<g>
</g>
<g>
</g>
<g>
</g>
<g>
</g>
<g>
</g>
<g>
</g>
<g>
</g>
<g>
</g>
<g>
</g>
<g>
</g>
<g>
</g>
<g>
</g>
<g>
</g>
</svg>
